<svg width="135" height="135" viewBox="0 0 135 135" fill="none" xmlns="http://www.w3.org/2000/svg">
<path d="M135 67.5C135 51.2501 129.138 35.5456 118.49 23.2703C107.842 10.9949 93.1234 2.97285 77.0364 0.677051C60.9495 -1.61875 44.5743 1.96587 30.9178 10.7727C17.2613 19.5794 7.24016 33.0172 2.69462 48.6185C-1.85092 64.2197 -0.615752 80.937 6.1733 95.7008C12.9624 110.465 24.8496 122.284 39.6521 128.988C54.4546 135.692 71.1788 136.831 86.7537 132.196C102.329 127.561 115.708 117.462 124.437 103.756L113.306 96.668C106.284 107.695 95.5199 115.819 82.9898 119.548C70.4597 123.277 57.0049 122.361 45.0961 116.968C33.1873 111.574 23.6239 102.065 18.162 90.1879C12.7002 78.3102 11.7065 64.8609 15.3634 52.3096C19.0203 39.7582 27.0824 28.9474 38.0692 21.8623C49.056 14.7771 62.23 11.8932 75.1722 13.7402C88.1143 15.5872 99.9557 22.0411 108.522 31.9167C117.088 41.7923 121.804 54.4268 121.804 67.5H135Z" fill="url(#paint0_linear_16539_217)"/>
<defs>
<linearGradient id="paint0_linear_16539_217" x1="60.1875" y1="8.4375" x2="130.5" y2="179.438" gradientUnits="userSpaceOnUse">
<stop stop-color="#FBA81A"/>
<stop offset="1" stop-color="#EC1B24"/>
</linearGradient>
</defs>
    <text x="67.5" y="67.5" fill="black" font-size="28" text-anchor="middle" dominant-baseline="middle" font-family="'Poppins', sans-serif">80%</text>
</svg>
