<svg width="16" height="16" viewBox="0 0 16 16" fill="none" xmlns="http://www.w3.org/2000/svg">
<path d="M9.29755 1.63248L10.6176 4.27248C10.7976 4.63998 11.2776 4.99248 11.6826 5.05998L14.0751 5.45748C15.6051 5.71248 15.9651 6.82248 14.8626 7.91748L13.0026 9.77748C12.6876 10.0925 12.5151 10.7 12.6126 11.135L13.1451 13.4375C13.5651 15.26 12.5976 15.965 10.9851 15.0125L8.74255 13.685C8.33755 13.445 7.67005 13.445 7.25755 13.685L5.01505 15.0125C3.41005 15.965 2.43505 15.2525 2.85505 13.4375L3.38755 11.135C3.48505 10.7 3.31255 10.0925 2.99755 9.77748L1.13755 7.91748C0.0425538 6.82248 0.395054 5.71248 1.92505 5.45748L4.31755 5.05998C4.71505 4.99248 5.19505 4.63998 5.37505 4.27248L6.69505 1.63248C7.41505 0.19998 8.58505 0.19998 9.29755 1.63248Z" stroke="#292D32" stroke-linecap="round" stroke-linejoin="round"/>
</svg>
